<svg width="326" height="137" viewBox="0 0 326 137" fill="none" xmlns="http://www.w3.org/2000/svg">
<g clip-path="url(#clip0_1_13)">
<path d="M68.5289 4.10119C68.9756 3.76683 69.6192 2.81558 71.1923 1.24197C69.6187 2.81558 68.6674 3.45865 68.3331 3.90537C68.4122 3.35284 68.1945 2.22541 68.1945 0C68.1945 2.22541 67.9769 3.35284 68.0565 3.90537C67.7216 3.45865 66.7704 2.81503 65.1973 1.24197C66.7709 2.81558 67.414 3.76628 67.8613 4.10119C67.3087 4.0221 66.1813 4.23973 63.9559 4.23918C66.1813 4.23918 67.3087 4.45681 67.8613 4.37772C67.4146 4.71208 66.7709 5.66333 65.1973 7.23694C66.7709 5.66333 67.7222 5.02026 68.0565 4.57354C67.9775 5.12607 68.1951 6.2535 68.1951 8.47891C68.1951 6.2535 68.4127 5.12607 68.3336 4.57354C68.668 5.02026 69.6192 5.66388 71.1928 7.23694C69.6192 5.66333 68.9762 4.71263 68.5294 4.37772C69.082 4.45736 70.2094 4.23918 72.4348 4.23973C70.2089 4.23918 69.0814 4.02155 68.5289 4.10119V4.10119ZM59.924 2.84121L59.1167 4.23918L59.924 5.63715H61.5385L62.3458 4.23918L61.5385 2.84121H59.924ZM74.8609 2.84121L74.0537 4.23918L74.8609 5.63715H76.4755L77.2827 4.23918L76.4755 2.84121H74.8609ZM72.4343 132.161C70.2089 132.161 69.0814 131.944 68.5289 132.023C68.9756 131.688 69.6192 130.737 71.1923 129.164C69.6187 130.737 68.6674 131.38 68.3331 131.827C68.4122 131.274 68.1945 130.147 68.1945 127.922C68.1945 130.147 67.9769 131.274 68.0565 131.827C67.7216 131.38 66.7704 130.737 65.1973 129.164C66.7709 130.737 67.4146 131.688 67.8613 132.023C67.3087 131.944 66.1813 132.161 63.9559 132.161C66.1813 132.161 67.3087 132.379 67.8613 132.3C67.4146 132.635 66.7709 133.586 65.1973 135.159C66.7709 133.586 67.7222 132.942 68.0565 132.496C67.9775 133.048 68.1951 134.176 68.1951 136.401C68.1951 134.176 68.4127 133.048 68.3336 132.496C68.668 132.942 69.6192 133.586 71.1928 135.159C69.6192 133.586 68.9762 132.635 68.5294 132.3C69.0814 132.379 70.2089 132.161 72.4343 132.161V132.161ZM59.924 130.763L59.1167 132.161L59.924 133.559H61.5385L62.3458 132.161L61.5385 130.763H59.924ZM74.8609 130.763L74.0537 132.161L74.8609 133.559H76.4755L77.2827 132.161L76.4755 130.763H74.8609ZM132.495 68.3342C133.047 68.4133 134.175 68.1956 136.4 68.1956C134.175 68.1956 133.047 67.978 132.495 68.0576C132.941 67.7227 133.585 66.7715 135.158 65.1984C133.584 66.772 132.633 67.4151 132.299 67.8624C132.378 67.3098 132.16 66.1824 132.16 63.957C132.16 66.1824 131.943 67.3098 132.022 67.8624C131.687 67.4156 130.736 66.772 129.163 65.199C130.736 66.7726 131.379 67.7238 131.826 68.0582C131.273 67.9791 130.146 68.1967 127.921 68.1967C130.146 68.1967 131.273 68.4144 131.826 68.3347C131.379 68.6696 130.736 69.6203 129.163 71.1939C130.736 69.6203 131.687 68.9773 132.022 68.5305C131.943 69.0831 132.16 70.2105 132.16 72.4359C132.16 70.2105 132.377 69.0831 132.298 68.5305C132.633 68.9773 133.584 69.6209 135.157 71.1939C133.585 69.6198 132.941 68.6685 132.495 68.3342V68.3342ZM130.762 61.539L132.161 62.3463L133.559 61.539V59.9245L132.161 59.1173L130.762 59.9245V61.539ZM130.762 74.8615V76.476L132.161 77.2833L133.559 76.476V74.8615L132.161 74.0542L130.762 74.8615ZM1.24143 71.1934C2.81449 69.6198 3.76574 68.9767 4.10064 68.53C4.02155 69.0825 4.23918 70.21 4.23918 72.4354C4.23918 70.21 4.45681 69.0825 4.37772 68.53C4.71208 68.9767 5.66333 69.6203 7.23694 71.1939C5.66333 69.6203 5.02026 68.6691 4.57354 68.3347C5.12607 68.4138 6.2535 68.1962 8.47891 68.1962C6.25405 68.1962 5.12607 67.9785 4.57354 68.0582C5.02026 67.7233 5.66333 66.772 7.23694 65.199C5.66333 66.7726 4.71208 67.4162 4.37772 67.8629C4.45736 67.3104 4.23973 66.1829 4.23973 63.9575C4.23973 66.1824 4.0221 67.3104 4.10119 67.8629C3.76683 67.4162 2.81558 66.7726 1.24197 65.1995C2.81558 66.7731 3.45865 67.7244 3.90537 68.0587C3.35284 67.9796 2.22541 68.1973 0 68.1973C2.22541 68.1973 3.35284 68.4149 3.90537 68.3353C3.45811 68.6685 2.81449 69.6198 1.24143 71.1934V71.1934ZM5.63715 61.539V59.9245L4.23864 59.1173L2.84067 59.9245V61.539L4.23864 62.3463L5.63715 61.539ZM5.63715 74.8615L4.23864 74.0542L2.84067 74.8615V76.476L4.23864 77.2833L5.63715 76.476V74.8615ZM113.089 22.8311C112.537 22.7521 111.409 22.9697 109.184 22.9697C111.409 22.9697 112.537 23.1873 113.089 23.1082C112.643 23.4426 111.999 24.3938 110.425 25.9674C111.999 24.3938 112.95 23.7502 113.285 23.304C113.206 23.8566 113.423 24.984 113.423 27.2094C113.423 24.984 113.641 23.8566 113.561 23.304C113.896 23.7508 114.847 24.3944 116.42 25.9674C114.847 24.3938 114.204 23.4426 113.757 23.1082C114.31 23.1879 115.437 22.9697 117.662 22.9702C115.438 22.9702 114.31 22.7526 113.757 22.8317C114.204 22.4973 114.847 21.5455 116.42 19.9725C114.847 21.5461 113.896 22.1892 113.561 22.6364C113.64 22.0839 113.423 20.9565 113.423 18.7311C113.423 20.9565 113.205 22.0839 113.285 22.6364C112.95 22.1897 111.999 21.5461 110.425 19.9725C111.999 21.5455 112.643 22.4968 113.089 22.8311V22.8311ZM109.287 18.8336L109.705 17.2742L108.564 16.1326L107.004 16.5504L106.587 18.1098L107.728 19.2514L109.287 18.8336ZM117.149 28.6718L118.29 29.8134L119.85 29.3956L120.267 27.8361L119.126 26.6945L117.566 27.1129L117.149 28.6718ZM23.3035 113.562C23.856 113.641 24.9835 113.424 27.2089 113.424C24.9835 113.424 23.856 113.207 23.3035 113.286C23.7502 112.951 24.3938 112 25.9669 110.427C24.3933 112 23.442 112.644 23.1077 113.09C23.1868 112.538 22.9691 111.411 22.9691 109.185C22.9691 111.411 22.7515 112.538 22.8306 113.09C22.4962 112.644 21.545 112 19.9714 110.427C21.545 112 22.1881 112.951 22.6348 113.286C22.0823 113.207 20.9548 113.424 18.7294 113.424C20.9548 113.424 22.0823 113.642 22.6348 113.563C22.1881 113.897 21.5444 114.848 19.9714 116.422C21.545 114.848 22.4962 114.205 22.8306 113.758C22.7515 114.311 22.9691 115.438 22.9691 117.663C22.9691 115.438 23.1868 114.311 23.1077 113.758C23.442 114.205 24.3933 114.848 25.9669 116.422C24.3933 114.848 23.7502 113.897 23.3035 113.562V113.562ZM19.2509 107.729L18.1092 106.587L16.5498 107.005L16.132 108.564L17.2736 109.706L18.8331 109.288L19.2509 107.729ZM27.1118 117.567L26.694 119.126L27.8356 120.268L29.395 119.85L29.8128 118.291L28.6712 117.149L27.1118 117.567ZM117.669 113.424C115.444 113.424 114.317 113.207 113.764 113.286C114.211 112.951 114.854 112 116.428 110.427C114.854 112 113.903 112.643 113.569 113.09C113.648 112.537 113.43 111.41 113.431 109.185C113.431 111.41 113.213 112.537 113.292 113.09C112.958 112.643 112.007 112 110.433 110.427C112.007 112 112.65 112.951 113.096 113.286C112.544 113.207 111.417 113.424 109.191 113.424C111.417 113.424 112.544 113.642 113.096 113.562C112.65 113.897 112.006 114.848 110.433 116.422C112.007 114.848 112.958 114.205 113.292 113.758C113.213 114.311 113.431 115.438 113.431 117.663C113.431 115.439 113.648 114.311 113.569 113.758C113.904 114.205 114.856 114.848 116.429 116.422C114.855 114.848 114.211 113.897 113.765 113.562C114.317 113.642 115.444 113.424 117.669 113.424ZM118.29 106.587L117.149 107.729L117.566 109.288L119.126 109.706L120.267 108.564L119.85 107.005L118.29 106.587ZM107.728 117.149L106.587 118.291L107.004 119.85L108.564 120.268L109.705 119.126L109.287 117.567L107.728 117.149ZM18.7365 22.9697C20.9619 22.9697 22.0893 23.1873 22.6419 23.1082C22.1952 23.4426 21.5515 24.3938 19.9785 25.9674C21.5521 24.3938 22.5033 23.7508 22.8377 23.304C22.7586 23.8566 22.9762 24.984 22.9762 27.2094C22.9762 24.984 23.1939 23.8566 23.1148 23.304C23.4491 23.7508 24.4004 24.3944 25.974 25.9674C24.4004 24.3938 23.7568 23.4426 23.31 23.1082C23.8626 23.1873 24.99 22.9697 27.2154 22.9697C24.99 22.9697 23.8626 22.7521 23.31 22.8317C23.7568 22.4973 24.4004 21.5461 25.974 19.9725C24.4004 21.5461 23.4491 22.1892 23.1148 22.6359C23.1939 22.0833 22.9762 20.9559 22.9768 18.7305C22.9768 20.9559 22.7592 22.0833 22.8382 22.6359C22.5039 22.1892 21.5526 21.5455 19.979 19.9725C21.5526 21.5461 22.1957 22.4973 22.6424 22.8317C22.0893 22.7521 20.9619 22.9697 18.7365 22.9697V22.9697ZM27.8356 16.1326L26.694 17.2742L27.1118 18.8336L28.6712 19.2514L29.8128 18.1098L29.395 16.5504L27.8356 16.1326ZM18.1092 29.8134L19.2509 28.6718L18.8331 27.1123L17.2736 26.6945L16.132 27.8361L16.5498 29.3956L18.1092 29.8134ZM92.4149 9.36144C92.1302 9.84143 91.9 10.9667 91.0486 13.0224C91.9 10.9667 92.5327 10.0078 92.6707 9.46725C92.8087 10.0078 93.4415 10.9661 94.2934 13.0224C93.442 10.9667 93.2113 9.84197 92.9266 9.36144C93.4065 9.64616 94.5318 9.87633 96.5876 10.7278C94.5318 9.87633 93.5734 9.24362 93.0324 9.10562C93.5734 8.96763 94.5318 8.33491 96.5876 7.48348C94.5318 8.33491 93.4065 8.56563 92.9266 8.85036C93.2113 8.37037 93.4415 7.24512 94.2929 5.18934C93.4415 7.24512 92.8087 8.20346 92.6707 8.74454C92.5327 8.20346 91.9 7.24512 91.048 5.18934C91.8995 7.24512 92.1302 8.37037 92.4149 8.85036C91.9349 8.56563 90.8097 8.33491 88.7539 7.48348C90.8097 8.33491 91.768 8.96763 92.3091 9.10562C91.768 9.24362 90.8097 9.87633 88.7539 10.7278C90.8102 9.87633 91.9349 9.64616 92.4149 9.36144ZM85.9858 7.85001L87.2665 6.86713L87.0559 5.2668L85.5642 4.64881L84.2835 5.6317L84.494 7.23257L85.9858 7.85001ZM99.786 13.5663L101.067 12.5834L100.856 10.9825L99.3644 10.3651L98.0837 11.3479L98.2943 12.9483L99.786 13.5663ZM43.9758 127.035C44.2605 126.555 44.4907 125.43 45.3421 123.374C44.4907 125.43 43.858 126.388 43.72 126.929C43.582 126.389 42.9493 125.43 42.0973 123.374C42.9487 125.43 43.1794 126.555 43.4642 127.035C42.9842 126.751 41.8589 126.52 39.8031 125.668C41.8589 126.52 42.8173 127.153 43.3583 127.291C42.8173 127.429 41.8589 128.061 39.8031 128.913C41.8589 128.061 42.9842 127.831 43.4642 127.546C43.1794 128.026 42.9493 129.151 42.0978 131.207C42.9493 129.151 43.582 128.192 43.72 127.652C43.858 128.193 44.4907 129.151 45.3427 131.207C44.4912 129.151 44.2605 128.026 43.9758 127.546C44.4558 127.831 45.581 128.061 47.6368 128.913C45.581 128.061 44.6227 127.429 44.0816 127.291C44.6221 127.153 45.5805 126.52 47.6368 125.668C45.581 126.52 44.4558 126.751 43.9758 127.035ZM36.6134 122.834L35.3327 123.817L35.5432 125.418L37.035 126.035L38.3157 125.053L38.1052 123.452L36.6134 122.834ZM50.4137 128.551L49.133 129.533L49.3435 131.134L50.8353 131.751L52.116 130.769L51.9049 129.168L50.4137 128.551ZM127.656 92.6713C128.197 92.5333 129.155 91.9006 131.211 91.0486C129.155 91.9 128.031 92.1308 127.55 92.4155C127.835 91.9355 128.066 90.8102 128.917 88.7545C128.066 90.8102 127.433 91.7686 127.295 92.3097C127.157 91.7691 126.524 90.8102 125.673 88.7545C126.524 90.8102 126.755 91.9355 127.039 92.4155C126.559 92.1308 125.434 91.9006 123.378 91.0491C125.434 91.9006 126.392 92.5333 126.933 92.6713C126.392 92.8093 125.434 93.442 123.378 94.294C125.434 93.4426 126.559 93.2118 127.039 92.9271C126.754 93.4071 126.524 94.5323 125.672 96.5881C126.524 94.5323 127.156 93.574 127.294 93.0329C127.432 93.5735 128.065 94.5323 128.917 96.5881C128.065 94.5323 127.834 93.4071 127.55 92.9271C128.03 93.2118 129.155 93.442 131.211 94.2934C129.155 93.442 128.197 92.8093 127.656 92.6713ZM129.167 84.4946L128.55 85.9863L129.532 87.267L131.133 87.0565L131.751 85.5647L130.768 84.284L129.167 84.4946ZM123.452 98.2948L122.834 99.7866L123.817 101.067L125.417 100.857L126.035 99.365L125.052 98.0843L123.452 98.2948ZM8.74727 43.7205C8.20673 43.8585 7.24784 44.4912 5.19262 45.3432C7.24839 44.4918 8.37364 44.2611 8.85363 43.9763C8.56891 44.4563 8.33873 45.5816 7.48675 47.6373C8.33819 45.5816 8.9709 44.6232 9.1089 44.0821C9.24689 44.6227 9.87961 45.581 10.731 47.6373C9.87961 45.5816 9.64889 44.4563 9.36416 43.9763C9.84415 44.2611 10.9694 44.4912 13.0252 45.3427C10.9694 44.4912 10.0105 43.8585 9.46998 43.7205C10.0105 43.5825 10.9694 42.9498 13.0252 42.0978C10.9694 42.9493 9.84415 43.18 9.36416 43.4647C9.64889 42.9847 9.87906 41.8595 10.731 39.8037C9.87961 41.8595 9.24689 42.8178 9.1089 43.3589C8.9709 42.8184 8.33819 41.8595 7.48675 39.8037C8.33819 41.8595 8.56891 42.9847 8.85363 43.4647C8.37364 43.18 7.24839 42.9498 5.19262 42.0984C7.24784 42.9498 8.20619 43.5825 8.74727 43.7205ZM12.9477 38.1052L13.5657 36.6139L12.5828 35.3332L10.9819 35.5438L10.3645 37.0356L11.3468 38.3163L12.9477 38.1052ZM7.23203 51.9054L7.84947 50.4142L6.86658 49.1335L5.26625 49.344L4.64826 50.8358L5.63115 52.1165L7.23203 51.9054ZM127.289 43.3562C127.151 42.8151 126.519 41.8567 125.667 39.801C126.519 41.8567 126.749 42.982 127.034 43.462C126.554 43.1773 125.428 42.9471 123.373 42.0951C125.428 42.9465 126.387 43.5793 126.928 43.7172C126.387 43.8552 125.428 44.488 123.373 45.3399C125.428 44.4885 126.554 44.2578 127.034 43.9731C126.749 44.4531 126.519 45.5783 125.667 47.6341C126.519 45.5783 127.151 44.62 127.289 44.0789C127.427 44.6194 128.06 45.5783 128.912 47.6341C128.06 45.5783 127.829 44.4531 127.545 43.9731C128.025 44.2578 129.15 44.488 131.206 45.3399C129.15 44.4885 128.192 43.8558 127.651 43.7178C128.191 43.5798 129.15 42.9471 131.206 42.0951C129.15 42.9465 128.025 43.1773 127.545 43.462C127.829 42.982 128.06 41.8567 128.911 39.801C128.06 41.8567 127.427 42.8156 127.289 43.3562V43.3562ZM125.051 38.3135L126.033 37.0328L125.416 35.5411L123.815 35.3305L122.833 36.6112L123.45 38.103L125.051 38.3135ZM129.532 49.1308L128.549 50.4115L129.167 51.9027L130.767 52.1138L131.75 50.8325L131.132 49.3413L129.532 49.1308ZM9.10617 93.0356C9.24417 93.5767 9.87688 94.5351 10.7283 96.5908C9.87688 94.5351 9.64616 93.4098 9.36144 92.9298C9.84143 93.2146 10.9667 93.4447 13.0224 94.2967C10.9667 93.4453 10.0083 92.8126 9.46725 92.6746C10.0083 92.5366 10.9667 91.9039 13.0219 91.0519C10.9661 91.9033 9.84143 92.134 9.36089 92.4188C9.64561 91.9388 9.87579 90.8135 10.7272 88.7577C9.87579 90.8135 9.24308 91.7724 9.10508 92.3129C8.96708 91.7724 8.33437 90.8135 7.48293 88.7577C8.33437 90.8135 8.56454 91.9388 8.84927 92.4188C8.36928 92.134 7.24403 91.9039 5.18825 91.0519C7.24403 91.9033 8.20292 92.536 8.74345 92.674C8.20292 92.812 7.24457 93.4447 5.18825 94.2967C7.24403 93.4453 8.36928 93.2146 8.84927 92.9298C8.56454 93.4098 8.33437 94.5351 7.48293 96.5908C8.33546 94.5351 8.96817 93.5762 9.10617 93.0356V93.0356ZM6.86767 87.2698L7.85056 85.9891L7.23257 84.4978L5.63224 84.2867L4.64935 85.568L5.26734 87.0592L6.86767 87.2698ZM11.3485 98.087L10.3656 99.3677L10.9836 100.859L12.5839 101.07L13.5668 99.7888L12.9488 98.2975L11.3485 98.087ZM93.0438 127.29C93.5849 127.152 94.5432 126.519 96.599 125.668C94.5432 126.519 93.418 126.75 92.938 127.034C93.2227 126.554 93.4529 125.429 94.3049 123.373C93.4535 125.429 92.8207 126.388 92.6822 126.928C92.5442 126.388 91.9115 125.429 91.0595 123.373C91.9115 125.429 92.1417 126.554 92.4264 127.034C91.9464 126.749 90.8211 126.519 88.7654 125.668C90.8211 126.519 91.7795 127.152 92.3206 127.29C91.78 127.428 90.8217 128.061 88.7659 128.912C90.8217 128.061 91.9469 127.83 92.4269 127.545C92.1422 128.025 91.912 129.151 91.06 131.206C91.9115 129.151 92.5442 128.192 92.6822 127.651C92.8207 128.192 93.4529 129.151 94.3049 131.206C93.4535 129.15 93.2227 128.025 92.938 127.545C93.418 127.829 94.5432 128.06 96.599 128.911C94.5427 128.061 93.5844 127.428 93.0438 127.29V127.29ZM98.297 123.451L98.0864 125.052L99.3671 126.034L100.858 125.416L101.069 123.816L99.7888 122.833L98.297 123.451ZM84.4973 129.167L84.2862 130.768L85.5674 131.751L87.0587 131.133L87.2692 129.532L85.9885 128.549L84.4973 129.167ZM47.6428 7.48457C45.587 8.336 44.4618 8.56673 43.9818 8.85145C44.2665 8.37146 44.4967 7.24621 45.3487 5.19043C44.4972 7.24621 43.8645 8.20455 43.7265 8.74563C43.5885 8.2051 42.9558 7.24621 42.1038 5.19043C42.9558 7.24621 43.186 8.37146 43.4707 8.85145C42.9907 8.56673 41.8655 8.33655 39.8097 7.48511C41.8655 8.33655 42.8238 8.96926 43.3649 9.10726C42.8244 9.24526 41.866 9.87797 39.8097 10.7294C41.8655 9.87797 42.9907 9.64725 43.4707 9.36253C43.186 9.84252 42.9558 10.9678 42.1038 13.0235C42.9553 10.9678 43.588 10.0094 43.726 9.46834C43.864 10.0089 44.4967 10.9678 45.3487 13.0235C44.4972 10.9678 44.2665 9.84252 43.9818 9.36253C44.4618 9.64725 45.587 9.87743 47.6428 10.7289C45.587 9.87743 44.6281 9.24471 44.0876 9.10671C44.6281 8.96872 45.5865 8.336 47.6428 7.48457V7.48457ZM51.9022 7.23312L52.1127 5.63224L50.832 4.6499L49.3408 5.26789L49.1302 6.86822L50.4109 7.8511L51.9022 7.23312ZM38.1025 12.9494L38.313 11.349L37.0323 10.3661L35.5411 10.9841L35.33 12.5845L36.6112 13.5673L38.1025 12.9494Z" fill="#111111"/>
<path d="M41.6294 88.6437C40.4709 88.6437 39.468 88.5958 38.6485 88.5014C38.5209 88.4862 38.3297 88.482 38.1761 88.4787C37.8302 88.4712 37.2512 88.4584 37.2512 87.8817C37.2512 87.399 37.7012 87.3 38.0298 87.2281C40.966 86.5848 44.4095 79.4715 46.0646 76.0529C46.3199 75.5255 46.5469 75.0564 46.7415 74.67C46.8083 74.5373 46.9249 74.4362 47.0661 74.3891C51.309 72.9705 54.1623 69.9585 55.789 65.1812C55.8579 64.979 56.035 64.8333 56.2466 64.8045C59.3437 64.3845 62.2663 60.4252 64.1951 57.4836C64.2993 57.3247 64.4764 57.2291 64.6662 57.2291H72.5079C72.7203 57.2291 72.9144 57.3485 73.0104 57.5378C73.9423 59.3767 75.3645 61.8214 76.9509 61.8214C77.0516 61.8214 77.1543 61.812 77.2566 61.7933C77.5283 61.7437 77.7948 61.8977 77.8879 62.1572C78.4249 63.6533 79.0836 64.8866 79.9016 65.9272C80.0938 66.1717 80.0514 66.5258 79.8067 66.7181C79.5619 66.9102 79.2081 66.868 79.0158 66.6233C78.1989 65.5838 77.5308 64.3783 76.98 62.9479C76.9703 62.9479 76.9605 62.9481 76.9509 62.9481C74.8734 62.9481 73.366 60.6764 72.1635 58.3557H64.9697C62.8388 61.5738 60.0227 65.2013 56.7446 65.8624C55.0268 70.6637 51.9677 73.8643 47.6456 75.3811C47.4773 75.7202 47.2877 76.1121 47.0787 76.5436C45.4151 79.9802 42.8171 85.3463 39.9889 87.4786C40.4889 87.504 41.0372 87.5167 41.6296 87.5167C43.8087 87.5167 46.3937 87.335 48.2153 87.0535C50.126 86.7591 51.938 86.6158 53.7547 86.6158C55.9967 86.6158 57.9951 86.8359 59.9277 87.0488C61.8863 87.2645 63.9108 87.4876 66.246 87.4934C68.7268 86.5827 70.8182 82.2261 72.2071 79.3324C72.4334 78.8609 72.6472 78.4155 72.842 78.0281C72.9088 77.8953 73.0254 77.7943 73.1664 77.747C76.2842 76.7024 78.3784 74.4901 79.5686 70.9845C79.6372 70.7826 79.8139 70.6367 80.0251 70.6076C80.368 70.5603 80.7092 70.4994 81.0391 70.427C81.3433 70.3605 81.6437 70.552 81.7102 70.856C81.777 71.1598 81.5849 71.4605 81.2811 71.5271C81.0323 71.5819 80.7777 71.6304 80.521 71.6721C79.2337 75.2166 76.9569 77.5915 73.747 78.7381C73.5842 79.0672 73.4077 79.4347 73.2229 79.8198C71.7362 82.9169 69.4895 87.5975 66.5203 88.591C66.4626 88.6103 66.4024 88.6201 66.3415 88.6201C63.9041 88.6201 61.8198 88.3904 59.8045 88.1685C57.8145 87.9493 55.9351 87.7422 53.7549 87.7422C51.9962 87.7422 50.2404 87.881 48.3873 88.1668C46.5135 88.4567 43.8609 88.6437 41.6294 88.6437Z" fill="#111111"/>
<path d="M68.7185 70.1898C68.5724 70.1898 68.4312 70.1329 68.3255 70.03L63.6538 65.4815L56.3561 65.9252C56.0519 65.9424 55.7909 65.7194 55.7612 65.4178C55.7317 65.1162 55.946 64.8453 56.2462 64.8045C59.3433 64.3845 62.266 60.4252 64.1947 57.4836C64.2989 57.3247 64.476 57.2291 64.6659 57.2291H72.5075C72.7199 57.2291 72.9141 57.3484 73.01 57.5378C73.7648 59.0268 74.9189 61.0739 76.2235 61.6573C76.4464 61.757 76.5795 61.9887 76.5538 62.2313L75.9156 68.2184C75.8955 68.4077 75.7809 68.574 75.6114 68.6604C75.442 68.747 75.24 68.7421 75.0751 68.6475L71.6169 66.6631L69.1714 69.9619C69.0745 70.0925 68.926 70.175 68.7641 70.1879C68.7486 70.1892 68.7335 70.1898 68.7185 70.1898ZM63.8684 64.3408C64.0147 64.3408 64.1559 64.3978 64.2614 64.5005L68.65 68.7733L71.0101 65.5896C71.18 65.3602 71.4953 65.2944 71.7429 65.4366L74.8868 67.2405L75.3928 62.4933C74.3229 61.8575 73.3065 60.5523 72.1635 58.3559H64.9693C63.4619 60.6327 61.6112 63.1142 59.4965 64.6055L63.8342 64.3417C63.8457 64.3411 63.8569 64.3408 63.8684 64.3408Z" fill="#111111"/>
<path d="M24.5922 88.5226C24.2216 88.5226 24 88.2325 24 87.952C24 87.5902 24.2788 87.451 24.4824 87.3496C24.7299 87.2263 25.1907 86.9964 25.673 86.5952C27.4674 85.114 28.9282 82.9721 30.0169 80.2277C30.0828 80.0613 30.224 79.9362 30.397 79.8906C32.3627 79.3727 32.6339 78.2061 32.6339 77.023C32.6339 76.5406 32.5791 76.0475 32.5257 75.5706C32.4767 75.1303 32.4303 74.7142 32.4303 74.3339C32.4303 73.8895 32.4944 73.5528 32.6318 73.274C32.9766 72.5741 33.753 72.4034 34.5749 72.2226C36.004 71.9083 37.9611 71.4777 39.148 68.1717C39.2412 67.9125 39.5076 67.7589 39.7789 67.8078C41.0691 68.0423 42.1621 67.6369 43.3299 66.5022C43.435 66.4 43.5758 66.3428 43.7225 66.3428H48.3689C48.5213 66.3428 48.6672 66.4046 48.7733 66.514C50.2674 68.0556 52.0169 69.1306 53.9729 69.7086C54.15 69.7608 54.2902 69.8967 54.3482 70.0723C54.4063 70.2478 54.3743 70.4403 54.2632 70.5879C52.5826 72.818 50.3572 74.4297 47.6456 75.3811C47.494 75.6885 47.3159 76.0608 47.1155 76.4796C45.1296 80.6295 41.433 88.3536 37.6742 88.3536C37.5488 88.3536 37.423 88.345 37.3 88.3283C34.8276 87.9914 33.2107 87.8089 31.7495 87.8089C30.2937 87.8089 28.9479 87.9786 26.5049 88.2868L25.5369 88.4085C25.3349 88.434 25.1711 88.4561 25.0419 88.4736C24.7864 88.5083 24.6805 88.5226 24.5922 88.5226ZM31.7495 86.6825C33.2747 86.6825 34.9305 86.8685 37.4525 87.212C37.5253 87.2221 37.5997 87.227 37.674 87.227C40.723 87.227 44.4905 79.3547 46.0991 75.9932C46.349 75.4712 46.5646 75.0204 46.7411 74.67C46.8079 74.5371 46.9247 74.4363 47.0656 74.3891C49.432 73.5977 51.3375 72.3313 52.868 70.5289C51.1113 69.8832 49.5222 68.8566 48.1328 67.4694H43.9465C42.7115 68.6075 41.4499 69.1 40.0456 68.9793C38.6303 72.484 36.3472 72.9865 34.8167 73.323C34.2431 73.4493 33.7475 73.5582 33.6422 73.7723C33.5857 73.887 33.557 74.0759 33.557 74.3339C33.557 74.6516 33.6 75.0375 33.6454 75.4459C33.6993 75.9298 33.7603 76.4781 33.7603 77.023C33.7603 79.044 32.8434 80.3152 30.9599 80.901C29.8943 83.4986 28.4954 85.5855 26.7953 87.1149C29.0157 86.8355 30.3136 86.6825 31.7495 86.6825Z" fill="#111111"/>
<path d="M78.0473 89.9252C78.043 89.9252 78.0385 89.9252 78.0342 89.9251C76.9053 89.8986 75.6713 89.7463 74.2615 89.4588C70.7552 88.7404 69.9309 88.6249 66.3406 88.6208C66.0645 88.6204 65.8294 88.4203 65.7851 88.1476C65.741 87.8752 65.9006 87.6108 66.1624 87.5233C68.6798 86.6809 70.8022 82.2589 72.2069 79.3329C72.4332 78.8614 72.647 78.416 72.8417 78.0287C72.9086 77.8959 73.0252 77.7949 73.1662 77.7476C76.284 76.703 78.3782 74.4907 79.5684 70.985C79.637 70.783 79.8142 70.6369 80.0259 70.608C82.6345 70.2523 84.8176 69.1828 86.699 67.3379C86.8046 67.2347 86.9459 67.1768 87.0935 67.1768H92.0834C92.221 67.1768 92.3541 67.2273 92.4572 67.3188C93.5117 68.2546 94.5114 68.5778 95.663 68.3665C95.933 68.317 96.2014 68.4707 96.2947 68.7304C97.5873 72.3291 99.7356 73.4341 101.825 74.2577C102.115 74.3716 102.257 74.6989 102.143 74.9883C102.029 75.2778 101.701 75.4201 101.412 75.3058C99.2645 74.4595 96.8659 73.2443 95.3954 69.538C94.1364 69.6436 92.9924 69.241 91.8738 68.3036H87.3206C85.4045 70.1209 83.1196 71.2531 80.5204 71.6734C79.2331 75.2177 76.9564 77.5925 73.7466 78.739C73.5838 79.0681 73.4073 79.4356 73.2225 79.8207C72.0505 82.2625 70.406 85.6884 68.3075 87.5158C70.5023 87.5734 71.6252 87.7689 74.487 88.3553C75.4901 88.5598 76.3961 88.6925 77.2326 88.7569C77.2314 88.6829 77.2448 88.6082 77.2737 88.5367L77.9947 86.7536C77.9925 86.6768 78.0062 86.5987 78.0364 86.5243C78.3308 85.804 78.6213 85.0877 78.9082 84.3676C78.9627 84.2307 79.0686 84.1207 79.2032 84.061C80.352 83.5517 80.4485 83.2367 80.7683 82.1934C80.8746 81.847 81.0068 81.4158 81.2035 80.9066C81.2873 80.6897 81.4963 80.5465 81.7289 80.5465C81.9618 80.5465 82.1706 80.6897 82.2545 80.9068C82.4351 81.3743 82.5587 81.7781 82.6678 82.1341C82.9913 83.1899 83.1254 83.627 84.1945 84.0525C84.3376 84.1094 84.451 84.2223 84.5087 84.3652L85.3824 86.5268C85.4109 86.5979 85.4244 86.6721 85.4233 86.7457L85.7942 87.6609C86.5822 87.5712 87.3666 87.5246 88.1783 87.5186C88.6911 87.5156 89.2031 87.5094 89.7154 87.5034L90.4858 87.4944C91.9619 87.4726 93.2995 87.3449 94.5931 87.2213C95.9818 87.0888 97.4179 86.9517 98.9941 86.9517C99.6864 86.9517 100.356 86.9772 101.04 87.0294C101.79 87.0861 102.481 87.1491 103.149 87.2099C104.754 87.3562 106.271 87.4944 108.141 87.4944H108.371C107.179 86.4984 106.032 84.9467 105.027 82.9422C104.887 82.6641 104.999 82.3256 105.277 82.1861C105.556 82.0466 105.894 82.1589 106.034 82.4369C107.415 85.1899 109.09 87.0424 110.629 87.5197C110.895 87.6021 111.061 87.8667 111.019 88.142C110.977 88.4174 110.741 88.621 110.462 88.621H108.141C106.22 88.621 104.678 88.4805 103.047 88.332C102.383 88.2715 101.696 88.209 100.955 88.1529C100.299 88.1027 99.6571 88.0785 98.9939 88.0785C97.4712 88.0785 96.1251 88.2071 94.6999 88.3429C93.384 88.4685 92.0236 88.5984 90.4999 88.621L89.7289 88.6298C89.2146 88.636 88.7001 88.6422 88.1858 88.6452C87.2734 88.652 86.3975 88.7128 85.5086 88.8313C85.2549 88.864 85.0083 88.7226 84.912 88.4843L84.274 86.9087C84.2451 86.8372 84.2315 86.7624 84.2327 86.6886L83.5514 85.003C82.3719 84.4712 82.0128 83.7658 81.7276 82.9007C81.4405 83.7881 81.1277 84.3907 79.8713 84.9933C79.645 85.5599 79.4162 86.1248 79.185 86.6916C79.1869 86.7669 79.1736 86.8437 79.1441 86.9166L78.7188 87.9681C78.7513 87.9884 78.7819 88.0124 78.8102 88.04C78.9749 88.1996 79.0263 88.443 78.9403 88.6557L78.5691 89.5734C78.4833 89.7861 78.2766 89.9252 78.0473 89.9252Z" fill="#111111"/>
<path d="M102.601 85.9841C102.464 85.9841 102.327 85.9347 102.219 85.8352C101.116 84.8194 98.5517 82.3263 98.5517 81.1175C98.5517 80.2907 98.3895 79.4144 96.4304 77.7943C94.408 76.1175 93.5529 74.8546 93.5174 74.8016C93.3442 74.5431 93.4137 74.1932 93.6723 74.0203C93.931 73.8474 94.2801 73.9167 94.4532 74.1745C94.4662 74.1938 95.273 75.3713 97.1488 76.9266C99.2479 78.6624 99.6781 79.8573 99.6781 81.1175C99.6976 81.5852 101.241 83.403 102.982 85.0064C103.211 85.2173 103.226 85.5736 103.015 85.8023C102.904 85.9231 102.752 85.9841 102.601 85.9841Z" fill="#111111"/>
<path d="M76.9151 94.0051C76.7784 94.0051 76.6434 93.9555 76.5373 93.86C76.3617 93.7015 76.3041 93.4504 76.3925 93.2311L77.0865 91.51C77.0552 91.4912 77.0251 91.4695 76.9972 91.4443C76.8205 91.2856 76.7621 91.0334 76.8513 90.8136L77.4951 89.2237C77.4677 89.2063 77.4418 89.1865 77.4172 89.1644C77.2428 89.0055 77.1857 88.755 77.2739 88.5363L77.995 86.7532C77.9927 86.6764 78.0064 86.5983 78.0367 86.5239C78.3315 85.8029 78.6223 85.0856 78.9132 84.3648C78.968 84.2286 79.0737 84.1194 79.2078 84.0602C80.3521 83.5545 80.4482 83.2397 80.7678 82.1964C80.8741 81.849 81.0064 81.417 81.2038 80.9062C81.2875 80.6894 81.4965 80.5461 81.7292 80.5461C81.962 80.5461 82.1708 80.6894 82.2547 80.9064C82.4354 81.374 82.5589 81.7777 82.668 82.1337C82.9915 83.1895 83.1256 83.6266 84.1948 84.0521C84.3379 84.109 84.4513 84.2219 84.5089 84.3648L85.3826 86.5264C85.4117 86.5987 85.4251 86.6742 85.4234 86.7489L86.148 88.5361C86.2392 88.7614 86.1756 89.0202 85.9901 89.1773C85.97 89.1946 85.9488 89.21 85.9268 89.2239L86.5438 90.7572C86.587 90.8369 86.6114 90.9281 86.6114 91.0252C86.6114 91.2317 86.5004 91.4122 86.3346 91.5102L87.0294 93.2311C87.1202 93.4566 87.0564 93.7152 86.8705 93.8722C86.6846 94.0295 86.4193 94.0492 86.2118 93.9219C84.8015 93.055 83.3889 92.6334 81.8933 92.6334C80.3874 92.6334 78.845 93.0608 77.1774 93.9403C77.0948 93.9839 77.0045 94.0051 76.9151 94.0051ZM78.308 90.2178C78.3435 90.239 78.3773 90.2643 78.4081 90.2936C78.5756 90.4529 78.6287 90.6981 78.5423 90.9125L77.9715 92.3277C79.3182 91.7823 80.6326 91.5064 81.8937 91.5064C83.0905 91.5064 84.2699 91.753 85.4153 92.2416L84.8561 90.8566C84.7679 90.638 84.8251 90.3875 84.9996 90.2289C85.0277 90.2031 85.0583 90.1808 85.0901 90.1618L84.4609 88.5988C84.3732 88.381 84.4299 88.1316 84.603 87.973C84.6272 87.951 84.6531 87.9311 84.68 87.914L84.274 86.9128C84.2445 86.8402 84.231 86.7639 84.2329 86.6888L83.5515 85.003C82.3721 84.4714 82.0131 83.766 81.7279 82.9011C81.4475 83.7654 81.1249 84.3929 79.874 84.9938C79.6453 85.5605 79.4162 86.1251 79.1851 86.6916C79.1869 86.7669 79.1736 86.8437 79.1441 86.9166L78.7188 87.9681C78.7513 87.9884 78.7821 88.0126 78.8103 88.04C78.9749 88.1998 79.0264 88.4433 78.9402 88.6559L78.308 90.2178Z" fill="#111111"/>
<path d="M81.7089 95.2737C81.3977 95.2737 81.1456 95.0215 81.1456 94.7104V92.0739C81.1456 91.7628 81.3977 91.5106 81.7089 91.5106C82.02 91.5106 82.2722 91.7628 82.2722 92.0739V94.7104C82.2722 95.0215 82.02 95.2737 81.7089 95.2737Z" fill="#111111"/>
<path d="M101.209 92.6053H96.1034C95.7922 92.6053 95.54 92.3531 95.54 92.042C95.54 91.7308 95.7922 91.4787 96.1034 91.4787H101.209C101.52 91.4787 101.772 91.7308 101.772 92.042C101.772 92.3531 101.52 92.6053 101.209 92.6053Z" fill="#111111"/>
<path d="M110.937 93.6502H101.265C100.953 93.6502 100.701 93.3981 100.701 93.0869C100.701 92.7758 100.953 92.5236 101.265 92.5236H110.937C111.248 92.5236 111.5 92.7758 111.5 93.0869C111.5 93.3981 111.248 93.6502 110.937 93.6502Z" fill="#111111"/>
<path d="M87.0735 96.7854H77.9318C77.6207 96.7854 77.3685 96.5333 77.3685 96.2221C77.3685 95.911 77.6207 95.6588 77.9318 95.6588H87.0735C87.3846 95.6588 87.6368 95.911 87.6368 96.2221C87.6368 96.5333 87.3846 96.7854 87.0735 96.7854Z" fill="#111111"/>
<path d="M103.734 98.7197H84.3215C84.0104 98.7197 83.7582 98.4675 83.7582 98.1564C83.7582 97.8452 84.0104 97.593 84.3215 97.593H103.734C104.045 97.593 104.297 97.8452 104.297 98.1564C104.297 98.4675 104.045 98.7197 103.734 98.7197Z" fill="#111111"/>
<path d="M76.2408 101.719H67.0992C66.7881 101.719 66.5359 101.467 66.5359 101.156C66.5359 100.845 66.7881 100.592 67.0992 100.592H76.2408C76.5519 100.592 76.8041 100.845 76.8041 101.156C76.8041 101.467 76.5519 101.719 76.2408 101.719Z" fill="#111111"/>
<path d="M57.116 93.5306H52.6726C52.3614 93.5306 52.1093 93.2784 52.1093 92.9673C52.1093 92.6562 52.3614 92.404 52.6726 92.404H57.116C57.4271 92.404 57.6793 92.6562 57.6793 92.9673C57.6793 93.2784 57.4269 93.5306 57.116 93.5306Z" fill="#111111"/>
<path d="M72.3838 94.9344H68.8939C68.5827 94.9344 68.3306 94.6822 68.3306 94.3711C68.3306 94.0599 68.5827 93.8078 68.8939 93.8078H72.3838C72.6949 93.8078 72.9471 94.0599 72.9471 94.3711C72.9471 94.6822 72.6949 94.9344 72.3838 94.9344Z" fill="#111111"/>
<path d="M35.3383 90.3558H30.2332C29.9221 90.3558 29.6699 90.1036 29.6699 89.7925C29.6699 89.4814 29.9221 89.2292 30.2332 89.2292H35.3383C35.6495 89.2292 35.9016 89.4814 35.9016 89.7925C35.9016 90.1036 35.6495 90.3558 35.3383 90.3558Z" fill="#111111"/>
<path d="M45.0664 92.7249H35.3943C35.0832 92.7249 34.831 92.4727 34.831 92.1616C34.831 91.8504 35.0832 91.5983 35.3943 91.5983H45.0664C45.3775 91.5983 45.6297 91.8504 45.6297 92.1616C45.6297 92.4727 45.3775 92.7249 45.0664 92.7249Z" fill="#111111"/>
<path d="M48.9476 98.0733H25.4708C25.1596 98.0733 24.9075 97.8212 24.9075 97.51C24.9075 97.1989 25.1596 96.9467 25.4708 96.9467H48.9474C49.2585 96.9467 49.5107 97.1989 49.5107 97.51C49.5107 97.8212 49.2585 98.0733 48.9476 98.0733Z" fill="#111111"/>
<path d="M70.9793 58.3561C70.7189 58.3561 70.4851 58.1747 70.4287 57.9099C70.3088 57.3463 70.2481 56.7948 70.2481 56.2703C70.2481 52.3142 73.5621 50.9226 73.7033 50.8652C73.9909 50.7478 74.3199 50.8868 74.4371 51.175C74.5539 51.4627 74.4161 51.7905 74.1288 51.9082C74.0131 51.9563 71.3745 53.0895 71.3745 56.2701C71.3745 56.7159 71.4269 57.1887 71.5306 57.6754C71.5954 57.9798 71.4012 58.2789 71.0966 58.3437C71.0576 58.352 71.0182 58.3561 70.9793 58.3561Z" fill="#111111"/>
<path d="M68.5869 58.3559C68.4397 58.3559 68.2927 58.2985 68.1821 58.1841C67.9658 57.9605 67.9718 57.6039 68.1952 57.3876C68.2076 57.3756 68.3162 57.2574 68.3162 56.7984C68.3162 55.3039 67.2171 52.6854 67.2061 52.6591C67.085 52.3726 67.2192 52.0421 67.5057 51.921C67.7927 51.8001 68.1228 51.9342 68.2439 52.2207C68.2929 52.3365 69.4428 55.0782 69.4428 56.7984C69.4428 57.4375 69.2909 57.8951 68.9786 58.1972C68.8691 58.3033 68.7279 58.3559 68.5869 58.3559Z" fill="#111111"/>
<path d="M65.683 58.3559C65.5334 58.3559 65.3839 58.2966 65.2731 58.179C65.0597 57.9526 65.0702 57.5962 65.2966 57.3827C65.5407 57.1525 65.6545 56.9069 65.6545 56.6098C65.6545 55.1536 63.0306 53.0373 62.1113 52.4107C61.8542 52.2355 61.7879 51.8849 61.9631 51.6279C62.1385 51.371 62.4883 51.3042 62.7459 51.4797C63.1589 51.7614 66.7811 54.297 66.7811 56.6098C66.7811 57.2214 66.5417 57.7571 66.0695 58.2023C65.9606 58.305 65.8216 58.3559 65.683 58.3559Z" fill="#111111"/>
<path d="M66.2858 52.84C66.0689 52.84 65.8622 52.714 65.7694 52.5026L64.3054 49.1601C64.1805 48.875 64.3104 48.5429 64.5953 48.418C64.8801 48.2935 65.2125 48.4231 65.3373 48.7079L66.8014 52.0504C66.9263 52.3354 66.7963 52.6676 66.5115 52.7925C66.4381 52.8248 66.3613 52.84 66.2858 52.84Z" fill="#111111"/>
<path d="M70.8159 52.2019C70.7404 52.2019 70.6634 52.1865 70.5898 52.1542C70.3048 52.0292 70.1754 51.6968 70.3005 51.412L71.7683 48.0694C71.8933 47.7846 72.2251 47.6549 72.5105 47.7801C72.7956 47.9052 72.925 48.2375 72.7999 48.5224L71.3321 51.8649C71.2393 52.0759 71.0326 52.2019 70.8159 52.2019Z" fill="#111111"/>
<path d="M68.0123 38.1221C67.7012 38.1221 67.449 37.87 67.449 37.5588V34.5633C67.449 34.2522 67.7012 34 68.0123 34C68.3235 34 68.5757 34.2522 68.5757 34.5633V37.5588C68.5757 37.87 68.3237 38.1221 68.0123 38.1221Z" fill="#111111"/>
<path d="M77.2507 43.132C77.0505 43.132 76.8565 43.0252 76.7546 42.8367C76.6066 42.5631 76.7084 42.2214 76.982 42.0732L79.746 40.5772C80.0193 40.4289 80.3613 40.5309 80.5094 40.8044C80.6574 41.078 80.5556 41.4198 80.282 41.5679L77.5181 43.0639C77.433 43.1101 77.341 43.132 77.2507 43.132Z" fill="#111111"/>
<path d="M58.7787 43.132C58.6882 43.132 58.5962 43.1102 58.5111 43.064L55.747 41.5681C55.4732 41.4199 55.3716 41.0782 55.5198 40.8046C55.6677 40.5308 56.0096 40.4291 56.2832 40.5774L59.0474 42.0734C59.3212 42.2215 59.4228 42.5633 59.2746 42.8368C59.1725 43.025 58.9787 43.132 58.7787 43.132Z" fill="#111111"/>
<path d="M73.0973 39.8652C72.9967 39.8652 72.8949 39.8382 72.8029 39.7817C72.5379 39.6187 72.4549 39.2719 72.6181 39.0069L73.5915 37.4235C73.7545 37.1581 74.1013 37.0753 74.3664 37.2385C74.6314 37.4015 74.7144 37.7483 74.5512 38.0132L73.5778 39.5967C73.4713 39.7698 73.2864 39.8652 73.0973 39.8652Z" fill="#111111"/>
<path d="M80.1333 48.1412H78.1872C77.8761 48.1412 77.6239 47.889 77.6239 47.5779C77.6239 47.2668 77.8761 47.0146 78.1872 47.0146H80.1333C80.4444 47.0146 80.6966 47.2668 80.6966 47.5779C80.6966 47.889 80.4444 48.1412 80.1333 48.1412Z" fill="#111111"/>
<path d="M57.8417 48.1412H55.8953C55.5841 48.1412 55.332 47.889 55.332 47.5779C55.332 47.2668 55.5841 47.0146 55.8953 47.0146H57.8417C58.1528 47.0146 58.405 47.2668 58.405 47.5779C58.405 47.889 58.1528 48.1412 57.8417 48.1412Z" fill="#111111"/>
<path d="M62.9279 39.8652C62.7386 39.8652 62.5538 39.7698 62.4474 39.5967L61.474 38.0132C61.311 37.7483 61.3938 37.4013 61.6589 37.2385C61.9241 37.0757 62.2709 37.1583 62.4337 37.4234L63.4071 39.0069C63.5701 39.2718 63.4873 39.6188 63.2221 39.7816C63.1303 39.8384 63.0283 39.8652 62.9279 39.8652Z" fill="#111111"/>
<path d="M68.0123 42.4936C67.7012 42.4936 67.449 42.2414 67.449 41.9303V40.239C67.449 39.9279 67.7012 39.6757 68.0123 39.6757C68.3235 39.6757 68.5757 39.9279 68.5757 40.239V41.9303C68.5757 42.2412 68.3237 42.4936 68.0123 42.4936Z" fill="#111111"/>
<path d="M72.907 45.3175C72.7122 45.3175 72.523 45.2165 72.4186 45.0359C72.2629 44.7664 72.3551 44.4218 72.6245 44.2664L74.0884 43.4208C74.3584 43.2652 74.7026 43.3576 74.8581 43.6268C75.0137 43.8963 74.9216 44.2408 74.6521 44.3963L73.188 45.2418C73.0994 45.2931 73.0025 45.3175 72.907 45.3175Z" fill="#111111"/>
<path d="M63.1179 45.3175C63.0223 45.3175 62.9254 45.2931 62.8366 45.2418L61.373 44.3963C61.1035 44.2406 61.0113 43.8961 61.167 43.6268C61.3225 43.3576 61.667 43.2652 61.9365 43.4208L63.4001 44.2664C63.6696 44.422 63.7618 44.7666 63.6061 45.0359C63.5017 45.2165 63.3124 45.3175 63.1179 45.3175Z" fill="#111111"/>
<path d="M70.7083 43.4749C70.6129 43.4749 70.5164 43.4507 70.4278 43.3996C70.1581 43.2443 70.0654 42.9 70.2206 42.6303L70.7351 41.7369C70.8902 41.4673 71.2348 41.3743 71.5044 41.5298C71.7741 41.6851 71.8668 42.0295 71.7115 42.2991L71.1971 43.1925C71.0928 43.3737 70.9032 43.4749 70.7083 43.4749Z" fill="#111111"/>
<path d="M74.4339 48.1412H73.401C73.0898 48.1412 72.8376 47.889 72.8376 47.5779C72.8376 47.2668 73.0898 47.0146 73.401 47.0146H74.4339C74.745 47.0146 74.9972 47.2668 74.9972 47.5779C74.9972 47.889 74.745 48.1412 74.4339 48.1412Z" fill="#111111"/>
<path d="M62.6237 48.1412H61.5949C61.2837 48.1412 61.0316 47.889 61.0316 47.5779C61.0316 47.2668 61.2837 47.0146 61.5949 47.0146H62.6237C62.9348 47.0146 63.187 47.2668 63.187 47.5779C63.187 47.889 62.9346 48.1412 62.6237 48.1412Z" fill="#111111"/>
<path d="M65.3208 43.4749C65.1265 43.4749 64.9376 43.3743 64.833 43.1942L64.3144 42.3008C64.1582 42.0317 64.2498 41.687 64.5189 41.5307C64.7876 41.3745 65.1327 41.4662 65.2889 41.7352L65.8075 42.6286C65.9637 42.8977 65.8721 43.2425 65.603 43.3987C65.514 43.4503 65.4168 43.4749 65.3208 43.4749Z" fill="#111111"/>
<path d="M68.8973 49.7369C68.6034 49.7369 68.3556 49.5088 68.3359 49.2111L68.0923 45.5693C68.0717 45.2589 68.3064 44.9904 68.6168 44.9698C68.9281 44.948 69.1957 45.1838 69.2163 45.4942L69.4599 49.136C69.4805 49.4464 69.2458 49.7149 68.9354 49.7356C68.9227 49.7365 68.9101 49.7369 68.8973 49.7369Z" fill="#111111"/>
<path d="M36.2638 64.1194H30.8992C30.184 64.1194 29.6023 63.5375 29.6023 62.8222C29.6023 62.107 30.1842 61.5251 30.8992 61.5251H33.6688C33.8292 60.9903 34.3257 60.5996 34.9117 60.5996H36.4837C36.6938 60.1657 37.1385 59.8658 37.652 59.8658H43.0163C43.7315 59.8658 44.3134 60.4477 44.3134 61.1629C44.3134 61.2138 44.3104 61.2641 44.3047 61.3137H46.0277C46.7407 61.3137 47.3209 61.8956 47.3209 62.6108C47.3209 63.3262 46.7409 63.9081 46.0277 63.9081H40.6633C40.1543 63.9081 39.7158 63.6199 39.5029 63.194H37.5069C37.3465 63.7286 36.8499 64.1194 36.2638 64.1194ZM30.8992 62.6516C30.8068 62.6516 30.7289 62.7297 30.7289 62.822C30.7289 62.9144 30.807 62.9925 30.8992 62.9925H36.2638C36.3562 62.9925 36.4343 62.9144 36.4343 62.822C36.4343 62.82 36.434 62.8076 36.4251 62.7744C36.3806 62.6054 36.4171 62.4253 36.5235 62.2869C36.6302 62.1485 36.795 62.0674 36.9697 62.0674H39.9289C40.2333 62.0674 40.4825 62.3091 40.4921 62.6132C40.4949 62.706 40.5717 62.7815 40.6633 62.7815H46.0277C46.1179 62.7815 46.1943 62.7032 46.1943 62.6108C46.1943 62.5184 46.118 62.4403 46.0277 62.4403H43.1837C42.8978 62.4403 42.6571 62.2259 42.6242 61.9416C42.5913 61.6575 42.7768 61.3939 43.0553 61.3285C43.1207 61.3131 43.1868 61.2513 43.1868 61.1629C43.1868 61.0705 43.1086 60.9924 43.0163 60.9924H37.6518C37.5595 60.9924 37.4813 61.0705 37.4813 61.1629C37.4813 61.474 37.2292 61.7262 36.918 61.7262H34.9117C34.8208 61.7262 34.7412 61.806 34.7412 61.8969C34.7412 61.9008 34.742 61.9129 34.7493 61.9399C34.7957 62.1093 34.7602 62.2905 34.6535 62.4302C34.547 62.5697 34.3814 62.6516 34.2059 62.6516H30.8992Z" fill="#111111"/>
<path d="M88.1106 64.6297H84.2699C83.661 64.6297 83.1838 64.0598 83.1838 63.3326C83.1838 62.6054 83.661 62.0355 84.2699 62.0355H86.099C86.2295 61.494 86.6409 61.1101 87.1415 61.1101H88.1183C88.2914 60.6723 88.663 60.3763 89.1035 60.3763H92.9447C93.5535 60.3763 94.0304 60.9462 94.0304 61.6735C94.0304 61.7243 94.028 61.7747 94.0234 61.8241H95.0982C95.7072 61.8241 96.1843 62.3921 96.1843 63.1174C96.1843 63.8465 95.7072 64.4145 95.0982 64.4145H91.2576C90.8257 64.4145 90.4583 64.1267 90.2825 63.7005H89.1538C89.0239 64.2433 88.6121 64.6297 88.1106 64.6297ZM84.3471 63.5031H88.0332C88.0507 63.4687 88.0696 63.4094 88.0696 63.3326C88.0696 63.2928 88.0676 63.2629 88.0632 63.2389C88.033 63.0744 88.0773 62.9051 88.1843 62.7766C88.2914 62.648 88.45 62.5738 88.6173 62.5738H90.7352C91.0441 62.5738 91.2953 62.8226 91.2985 63.1313C91.2993 63.2057 91.3177 63.2579 91.3331 63.2877H95.0224C95.0385 63.2564 95.0577 63.2006 95.0577 63.121C95.0577 63.0387 95.0383 62.9822 95.0224 62.9505H93.0645C92.7875 62.9505 92.5519 62.7494 92.5081 62.476C92.4665 62.2144 92.6125 61.9609 92.8557 61.8641C92.8749 61.8366 92.904 61.7683 92.904 61.6733C92.904 61.5918 92.8844 61.5349 92.8683 61.5028H89.1778C89.1611 61.5343 89.1409 61.5912 89.1409 61.6733C89.1409 61.9844 88.8887 62.2366 88.5775 62.2366H87.2179C87.2017 62.2679 87.1826 62.3237 87.1826 62.4031C87.1826 62.4615 87.1871 62.4858 87.1877 62.4886C87.2207 62.654 87.1777 62.8254 87.0707 62.9559C86.9638 63.0862 86.8039 63.1619 86.6352 63.1619H84.3471C84.3294 63.1961 84.3105 63.2556 84.3105 63.3324C84.3105 63.4092 84.3294 63.4689 84.3471 63.5031Z" fill="#111111"/>
<path d="M199.681 28.0792V30.806L197.81 30.8594C195.351 40.6436 192.303 59.303 190.378 69.8892C187.438 69.9426 183.428 70.905 181.77 71.6001C181.075 65.4515 179.418 52.4594 177.974 41.5525C176.477 51.9248 174.873 63.5802 173.644 70.4773C170.863 70.6377 166.693 71.4931 164.661 73.204C163.646 64.2753 161.079 40.9644 159.636 30.5386H156L156.267 26.796L171.024 27.3307L170.489 30.2178L166.853 30.2713C166.96 38.9862 169.152 58.8753 170.275 65.2377H170.81C172.735 56.4694 175.461 39.2535 176.263 29.1485H173.109L173.002 25.7267L186.903 26.2614L186.636 28.2931L182.572 28.5604C183 37.2753 186.208 56.8971 187.063 63.6337H187.545C189.523 54.1169 191.501 40.002 193.212 31.0198L190.004 31.0733L189.523 27.598L199.681 28.0792ZM216.391 28.5604L211.899 28.8812L210.349 64.3288L213.931 64.1149L213.717 67.9644L199.977 67.5902L199.602 64.9704L203.505 64.7565L206.179 29.3089L202.115 29.6297V25.9406L216.765 26.4218L216.391 28.5604ZM248.712 23L248.658 27.1703L245.023 27.705L241.333 69.8357L233.848 70.4238C232.084 62.9921 228.609 41.7664 228.128 33.5862L227.753 33.5327L225.24 65.2377L227.112 64.9704L227.539 68.0179L218.825 68.7664L218.878 66.2001L221.391 65.6654L225.133 33.2119L221.819 32.9446L221.605 28.8812C225.775 28.8812 229.678 28.6139 233.207 28.2396C233.902 36.5802 236.575 52.6733 238.179 60.9604L241.28 28.1327L238.821 28.4L238.393 23.7485L248.712 23ZM247.564 25.9406L274.403 26.3149L273.655 35.4574L273.067 35.5109L270.019 29.4693L264.566 29.5228L261.999 65.1307L266.865 65.3446L266.918 67.6971L251.199 68.8199L251.52 64.6496L256.171 64.8634L257.562 29.5228L251.894 29.5762L248.526 36.206L247.777 36.1525L247.564 25.9406ZM285.819 29.6832L285.017 45.9901L290.31 45.4555L292.663 40.7505H293.251L292.396 52.4594L291.808 52.5129L290.417 49.0377L284.857 48.8773L284.055 65.0238L293.251 63.901L295.122 57.7525L296.085 57.806L296.566 67.6436L274.645 68.3387L274.806 66.0931L278.334 65.6654L279.243 29.6832H275.768L275.18 27.4376L296.833 26.101L296.619 36.2594L295.657 36.3129L292.609 29.6832H285.819V29.6832ZM318.087 48.2891C319.477 55.2396 322.578 64.1149 326 67.7506C323.754 68.1783 318.996 70.1565 317.392 71.9743C316.483 65.6119 315.414 57.9129 313.543 49.7327C312.687 49.8931 311.832 50 310.923 50.0535L310.067 65.0773L312.741 64.8634L312.527 67.9644L301.994 67.5902L301.834 65.7189L304.453 65.505L306.004 29.202L302.315 29.5228V26.3683C306.752 26.2079 309.105 25.9406 314.665 25.9406C321.348 25.9406 324.717 29.4158 324.717 36.099C324.717 42.3545 322.097 46.2575 318.087 48.2891ZM312.099 28.6673L311.03 47.7545C315.04 47.1664 318.141 44.0654 318.141 36.5268C318.141 31.6614 317.125 28.3465 312.099 28.6673V28.6673ZM301.192 29.202C301.406 29.202 301.673 29.3624 301.673 29.897C301.673 30.2178 301.352 30.5386 301.085 30.5386C300.871 30.5386 300.711 30.2178 300.711 29.897C300.711 29.3624 300.925 29.202 301.192 29.202Z" fill="#111111"/>
<path d="M161.836 115.666C161.079 115.666 160.686 117.068 160.686 119.959C160.686 125.43 164.951 129.078 164.951 133.427C164.951 136.457 162.341 139.122 160.293 139.122C159.171 139.122 158.441 138.14 158.076 136.906L157.992 138.645C157.431 138.589 156.673 138.786 156 139.122L157.15 131.631C157.712 131.547 158.273 131.434 158.834 131.182C158.385 133.707 158.778 137.635 160.237 137.635C161.135 137.635 161.64 136.26 161.64 134.156C161.64 130.06 157.235 127.506 157.235 121.558C157.235 117.237 159.086 114.178 161.415 114.178C162.51 114.178 163.267 115.02 163.604 116.255L163.744 113.477C164.586 113.421 165.708 113.337 166.662 113L164.642 123.943C164.053 123.915 163.099 124.111 162.482 124.392C163.239 121.389 163.295 115.666 161.836 115.666V115.666ZM181.211 118.528L179.836 118.556C179.584 132.753 178.462 138.898 173.551 138.898C171.363 138.898 169.427 137.551 169.118 132.276C168.866 127.618 169.202 123.185 169.539 117.321L168.304 117.405V115.385L175.038 115.666L174.674 117.068L172.934 117.181C172.317 131.098 172.204 136.513 174.561 136.513C177.255 136.513 177.732 130.508 177.956 118.64L175.852 118.724L175.6 116.732L181.183 116.984L181.211 118.528ZM202.13 115.441L201.316 115.385C200.614 121.502 200.053 132.192 199.857 136.766L201.54 136.653L201.428 138.674L194.217 138.477L194.021 137.102L196.378 136.962C196.518 133.09 196.939 125.149 197.472 120.464L197.219 120.435L192.758 134.409L190.036 134.717C189.644 130.2 189.503 122.287 189.335 118.135L189.082 118.079C188.241 124.308 187.736 129.583 187.09 134.353L187.988 134.268L188.213 136.709L182.797 137.102L182.825 134.914L184.733 134.633C185.519 129.779 186.361 123.999 187.23 117.91L186.052 117.798L185.94 115.385C187.764 115.525 190.149 115.497 192 115.301C192.393 120.015 192.505 125.093 192.618 129.442L197.78 114.094C199.015 114.01 201.428 113.701 202.578 113.477L202.13 115.441ZM223.441 115.441L222.627 115.385C221.926 121.502 221.364 132.192 221.168 136.766L222.851 136.653L222.739 138.674L215.528 138.477L215.332 137.102L217.689 136.962C217.829 133.09 218.25 125.149 218.783 120.464L218.53 120.435L214.069 134.409L211.347 134.717C210.955 130.2 210.814 122.287 210.646 118.135L210.393 118.079C209.552 124.308 209.047 129.583 208.401 134.353L209.299 134.268L209.524 136.709L204.108 137.102L204.136 134.914L206.044 134.633C206.83 129.779 207.672 123.999 208.542 117.91L207.363 117.798L207.251 115.385C209.075 115.525 211.46 115.497 213.312 115.301C213.704 120.015 213.817 125.093 213.929 129.442L219.092 114.094C220.326 114.01 222.739 113.701 223.89 113.477L223.441 115.441ZM231.312 116.9L230.891 125.458L233.669 125.177L234.903 122.708H235.212L234.763 128.853L234.454 128.881L233.725 127.057L230.807 126.973L230.386 135.447L235.212 134.858L236.194 131.631L236.699 131.659L236.952 136.822L225.448 137.186L225.532 136.008L227.384 135.783L227.861 116.9H226.037L225.728 115.722L237.092 115.02L236.98 120.351L236.475 120.379L234.875 116.9H231.312V116.9ZM248.246 126.664C248.975 130.312 250.603 134.97 252.398 136.878C251.22 137.102 248.723 138.14 247.881 139.094C247.404 135.755 246.843 131.715 245.861 127.422C245.412 127.506 244.963 127.562 244.486 127.59L244.037 135.475L245.44 135.363L245.328 136.99L239.8 136.794L239.716 135.812L241.091 135.699L241.905 116.648L239.969 116.816V115.161C242.297 115.076 243.532 114.936 246.45 114.936C249.957 114.936 251.725 116.76 251.725 120.267C251.725 123.55 250.35 125.598 248.246 126.664ZM245.103 116.367L244.542 126.384C246.646 126.075 248.274 124.448 248.274 120.492C248.274 117.938 247.741 116.199 245.103 116.367V116.367ZM239.379 116.648C239.492 116.648 239.632 116.732 239.632 117.012C239.632 117.181 239.463 117.349 239.323 117.349C239.211 117.349 239.127 117.181 239.127 117.012C239.127 116.732 239.239 116.648 239.379 116.648ZM268.505 132.978L268.618 137.383L257.955 137.748L257.927 136.345L259.33 136.148L260.873 116.563L258.797 116.423L258.573 115.104L265.84 114.824L265.587 116.844L263.792 116.732L262.922 135.643L267.102 135.082L268 132.95L268.505 132.978ZM275.563 138.14C271.55 138.14 269.979 134.409 269.979 128.629C269.979 122.091 272.532 114.74 277.162 114.74C281.062 114.74 282.353 119.902 282.353 125.458C282.353 131.827 279.996 138.14 275.563 138.14V138.14ZM275.675 136.485C278.144 136.485 278.733 128.208 278.733 122.54C278.733 118.948 278.453 116.086 276.91 116.086C274.609 116.086 273.851 124.504 273.851 129.751C273.851 133.679 274.244 136.485 275.675 136.485ZM292.132 114.936C295.639 114.936 298.698 117.237 298.698 123.494C298.698 134.549 294.349 138.309 284.809 137.86L284.556 135.98C285.202 136.064 285.763 136.176 286.352 136.26L287.951 116.62L285.931 116.816V115.161C288.26 115.076 289.214 114.936 292.132 114.936V114.936ZM289.775 136.401C293.339 135.587 295.022 129.863 295.022 123.157C295.022 117.125 293.423 115.974 290.673 116.367L289.775 136.401ZM312.124 141.199C311.227 141.199 308.757 141.872 307.916 142.489C308.393 139.852 308.813 136.036 309.094 132.473C308.168 136.12 306.821 138.421 305.054 138.421C298.123 138.421 301.743 114.74 307.186 114.74C308.056 114.74 308.589 115.497 308.842 116.479L308.954 114.263C309.796 114.207 310.918 114.122 311.872 113.786L310.104 123.382C309.515 123.466 308.561 123.634 307.944 123.831C308.252 121.249 308.561 116.227 307.326 116.227C304.801 116.227 303.567 135.138 306.429 135.138C308.056 135.138 309.122 129.414 309.403 125.963C309.936 126.019 311.198 126.047 311.956 125.795C310.974 129.891 311.479 138.758 312.124 141.199V141.199ZM320.22 116.9L319.799 125.458L322.577 125.177L323.811 122.708H324.12L323.671 128.853L323.363 128.881L322.633 127.057L319.715 126.973L319.294 135.447L324.12 134.858L325.102 131.631L325.607 131.659L325.86 136.822L314.356 137.186L314.44 136.008L316.292 135.783L316.769 116.9H314.945L314.636 115.722L326 115.02L325.888 120.351L325.383 120.379L323.783 116.9H320.22V116.9Z" fill="#111111"/>
</g>
<defs>
<clipPath id="clip0_1_13">
<rect width="326" height="137" fill="white"/>
</clipPath>
</defs>
</svg>
