<?xml version="1.0" standalone="no"?><svg xmlns="http://www.w3.org/2000/svg" viewBox="0 0 1440 320"><path fill="#0099ff" fill-opacity="1" d="M0,128L8,149.3C16,171,32,213,48,234.7C64,256,80,256,96,250.7C112,245,128,235,144,240C160,245,176,267,192,261.3C208,256,224,224,240,186.7C256,149,272,107,288,128C304,149,320,235,336,229.3C352,224,368,128,384,122.7C400,117,416,203,432,229.3C448,256,464,224,480,213.3C496,203,512,213,528,213.3C544,213,560,203,576,197.3C592,192,608,192,624,213.3C640,235,656,277,672,245.3C688,213,704,107,720,85.3C736,64,752,128,768,138.7C784,149,800,107,816,85.3C832,64,848,64,864,74.7C880,85,896,107,912,138.7C928,171,944,213,960,229.3C976,245,992,235,1008,202.7C1024,171,1040,117,1056,122.7C1072,128,1088,192,1104,208C1120,224,1136,192,1152,186.7C1168,181,1184,203,1200,197.3C1216,192,1232,160,1248,144C1264,128,1280,128,1296,112C1312,96,1328,64,1344,48C1360,32,1376,32,1392,74.7C1408,117,1424,203,1432,245.3L1440,288L1440,0L1432,0C1424,0,1408,0,1392,0C1376,0,1360,0,1344,0C1328,0,1312,0,1296,0C1280,0,1264,0,1248,0C1232,0,1216,0,1200,0C1184,0,1168,0,1152,0C1136,0,1120,0,1104,0C1088,0,1072,0,1056,0C1040,0,1024,0,1008,0C992,0,976,0,960,0C944,0,928,0,912,0C896,0,880,0,864,0C848,0,832,0,816,0C800,0,784,0,768,0C752,0,736,0,720,0C704,0,688,0,672,0C656,0,640,0,624,0C608,0,592,0,576,0C560,0,544,0,528,0C512,0,496,0,480,0C464,0,448,0,432,0C416,0,400,0,384,0C368,0,352,0,336,0C320,0,304,0,288,0C272,0,256,0,240,0C224,0,208,0,192,0C176,0,160,0,144,0C128,0,112,0,96,0C80,0,64,0,48,0C32,0,16,0,8,0L0,0Z"></path></svg>