<?xml version="1.0" standalone="no"?><svg xmlns="http://www.w3.org/2000/svg" viewBox="0 0 1440 320"><path fill="#0099ff" fill-opacity="1" d="M0,32L8,42.7C16,53,32,75,48,85.3C64,96,80,96,96,112C112,128,128,160,144,165.3C160,171,176,149,192,133.3C208,117,224,107,240,106.7C256,107,272,117,288,117.3C304,117,320,107,336,112C352,117,368,139,384,176C400,213,416,267,432,250.7C448,235,464,149,480,122.7C496,96,512,128,528,160C544,192,560,224,576,202.7C592,181,608,107,624,112C640,117,656,203,672,218.7C688,235,704,181,720,176C736,171,752,213,768,213.3C784,213,800,171,816,149.3C832,128,848,128,864,128C880,128,896,128,912,144C928,160,944,192,960,192C976,192,992,160,1008,133.3C1024,107,1040,85,1056,112C1072,139,1088,213,1104,240C1120,267,1136,245,1152,234.7C1168,224,1184,224,1200,224C1216,224,1232,224,1248,218.7C1264,213,1280,203,1296,192C1312,181,1328,171,1344,165.3C1360,160,1376,160,1392,176C1408,192,1424,224,1432,240L1440,256L1440,320L1432,320C1424,320,1408,320,1392,320C1376,320,1360,320,1344,320C1328,320,1312,320,1296,320C1280,320,1264,320,1248,320C1232,320,1216,320,1200,320C1184,320,1168,320,1152,320C1136,320,1120,320,1104,320C1088,320,1072,320,1056,320C1040,320,1024,320,1008,320C992,320,976,320,960,320C944,320,928,320,912,320C896,320,880,320,864,320C848,320,832,320,816,320C800,320,784,320,768,320C752,320,736,320,720,320C704,320,688,320,672,320C656,320,640,320,624,320C608,320,592,320,576,320C560,320,544,320,528,320C512,320,496,320,480,320C464,320,448,320,432,320C416,320,400,320,384,320C368,320,352,320,336,320C320,320,304,320,288,320C272,320,256,320,240,320C224,320,208,320,192,320C176,320,160,320,144,320C128,320,112,320,96,320C80,320,64,320,48,320C32,320,16,320,8,320L0,320Z"></path></svg>